<?xml version="1.0" encoding="iso-8859-1"?>
<!-- Uploaded to: SVG Repo, www.svgrepo.com, Generator: SVG Repo Mixer Tools -->
<svg height="800px" width="800px" version="1.1" id="Layer_1" xmlns="http://www.w3.org/2000/svg" xmlns:xlink="http://www.w3.org/1999/xlink" 
	 viewBox="0 0 509 509" xml:space="preserve">
<circle style="fill:#6EB1E1;" cx="254.5" cy="254.5" r="254.5"/>
<polygon style="fill:#333842;" points="367.3,391.1 353.6,350.7 347.4,328 160.2,330 155.4,350.7 155.7,413.7 250.9,438.7 "/>
<ellipse style="fill:#F6CEB0;" cx="254.5" cy="246.4" rx="112.8" ry="144.1"/>
<path style="fill:#414753;" d="M457.6,228.4c0-20-12.7-37-30.4-43.5c4.3-6.4,6.8-14.2,6.8-22.5c0-22.3-18.1-40.4-40.4-40.4
	c-0.6,0-1.1,0.1-1.7,0.1V122c0-33.2-26.9-60-60-60c-6.5,0-12.7,1.1-18.6,3c-7.7-25.2-31.1-43.5-58.8-43.5s-51.1,18.3-58.8,43.4
	c-5.9-1.9-12.1-3-18.6-3c-33.2,0-60,26.9-60,60v0.1c-0.6,0-1.1-0.1-1.7-0.1C93.1,121.9,75,140,75,162.3c0,8.3,2.5,16,6.8,22.5
	c-17.7,6.5-30.4,23.5-30.4,43.5c0,21.1,14.1,38.8,33.3,44.4c-6.1,8-9.7,17.9-9.7,28.6c0,26.2,21.2,47.4,47.4,47.4
	s47.4-21.2,47.4-47.4c0-16.5-8.4-31-21.2-39.5c7.4-4.7,12.3-12.9,12.3-22.4c0-7.8-3.4-14.8-8.8-19.7c8-4,13.7-12.1,14.1-21.6
	c9.3-1.8,16.8-8.4,20.1-17.1c0.8-0.1,1.7-0.2,2.5-0.4c2.8,0.7,5.8,1.2,8.9,1.2c17,0,31.2-12,34.6-27.9c5.9,5.2,13.7,8.3,22.2,8.3
	c8.5,0,16.2-3.2,22.2-8.3c3.4,16,17.6,27.9,34.6,27.9c3.1,0,6-0.4,8.9-1.2c0.8,0.2,1.7,0.3,2.5,0.4c3.3,8.7,10.8,15.3,20.1,17.1
	c0.4,9.5,6.1,17.6,14.1,21.6c-5.4,4.9-8.8,11.8-8.8,19.7c0,9.4,4.9,17.7,12.3,22.4c-12.8,8.5-21.2,23-21.2,39.5
	c0,26.2,21.2,47.4,47.4,47.4s47.4-21.2,47.4-47.4c0-10.8-3.6-20.7-9.7-28.6C443.6,267.2,457.6,249.4,457.6,228.4z"/>
<g>
	<path style="fill:#F0582F;" d="M98.2,385.8c-6.8,3.8-5,19.5,6,32.4c10.9,12.9,25.2,16.5,30.1,10.5c14.7-16.9,29.4-33.9,44-50.8
		c-8.6-7.5-16.4-16.6-22.9-27.2C136.4,362.4,117.3,374.1,98.2,385.8z"/>
	<path style="fill:#F0582F;" d="M178.9,457.2c-3.4,7,5.5,18.2,20.5,22.5l0,0c15.1,4.3,28.4-0.5,29.3-8.2c3.1-22.2,6.3-44.3,9.4-66.5
		c-10.8-1.5-21.5-4.5-31.6-9.1C197.4,416.4,188.2,436.8,178.9,457.2z"/>
	<path style="fill:#F0582F;" d="M280.3,471.5c0.9,7.7,14.2,12.6,29.3,8.2c15.1-4.3,23.9-15.5,20.5-22.5
		c-9.2-20.4-18.5-40.8-27.7-61.3c-10.1,4.5-20.7,7.5-31.6,9.1C274,427.2,277.1,449.4,280.3,471.5z"/>
	<path style="fill:#F0582F;" d="M330.7,377.9c14.7,16.9,29.4,33.9,44,50.8c4.9,6,19.2,2.5,30.1-10.5c10.9-12.9,12.8-28.6,6-32.4
		c-19.1-11.7-38.2-23.4-57.3-35.1C347.1,361.3,339.3,370.3,330.7,377.9z"/>
</g>
<g>
	<path style="fill:#FCFCFD;" d="M134.3,428.7c-5.3,5.7,0.3,19.4,13.8,28s27.8,7.7,30.8,0.6c9.2-20.4,18.5-40.8,27.7-61.3
		c-10.1-4.5-19.7-10.6-28.3-18.1C163.6,394.8,149,411.7,134.3,428.7z"/>
	<path style="fill:#FCFCFD;" d="M228.7,471.5c-1.3,7.7,10.2,16,25.8,15.9c15.6,0,27.1-8.3,25.8-15.9c-3.1-22.2-6.3-44.3-9.4-66.5
		c-10.8,1.5-21.8,1.5-32.6,0C235,427.2,231.9,449.4,228.7,471.5z"/>
	<path style="fill:#FCFCFD;" d="M302.4,396c9.2,20.4,18.5,40.8,27.7,61.3c3,7.2,17.3,8.1,30.8-0.6c13.5-8.6,19.1-22.3,13.8-28
		c-14.7-16.9-29.4-33.9-44-50.8C322,385.4,312.5,391.5,302.4,396z"/>
</g>
<path style="fill:#F8B517;" d="M225.1,225.5c-5.1-2.8-8.6-7.9-8.6-13.7l-2.2-9.8l-2.2,9.8c0,5.8-3.5,10.9-8.6,13.7
	c-5,2.7-8.3,7.2-8.3,12.2s3.3,9.5,8.3,12.2c5.1,2.8,8.6,7.9,8.6,13.7l2.2,9.8l2.2-9.8c0-5.8,3.5-10.9,8.6-13.7
	c5-2.7,8.3-7.2,8.3-12.2S230.1,228.2,225.1,225.5z"/>
<circle style="fill:#333842;" cx="214.3" cy="237.7" r="6.7"/>
<path style="fill:#F8B517;" d="M305.4,225.5c-5.1-2.8-8.6-7.9-8.6-13.7l-2.2-9.8l-2.2,9.8c0,5.8-3.5,10.9-8.6,13.7
	c-5,2.7-8.3,7.2-8.3,12.2s3.3,9.5,8.3,12.2c5.1,2.8,8.6,7.9,8.6,13.7l2.2,9.8l2.2-9.8c0-5.8,3.5-10.9,8.6-13.7
	c5-2.7,8.3-7.2,8.3-12.2S310.4,228.2,305.4,225.5z"/>
<circle style="fill:#333842;" cx="294.7" cy="237.7" r="6.7"/>
<circle style="fill:#EE4A68;" cx="254.5" cy="276.9" r="25.1"/>
<path style="fill:#F0582F;" d="M254.5,362.2c-27.5,0-53.1-10.4-71.9-29.3c-8-8-8-21,0-29s21-8,29,0c11.1,11.1,26.4,17.3,42.9,17.3
	c16.6,0,31.8-6.1,42.9-17.3c8-8,21-8,29,0s8,21,0,29C307.6,351.8,282,362.2,254.5,362.2z"/>
<path style="fill:#FCFCFD;" d="M254.5,347.1c-23.5,0-45.3-8.8-61.3-24.9c-2.1-2.1-2.1-5.6,0-7.7s5.6-2.1,7.7,0
	c14,14,33,21.7,53.6,21.7s39.6-7.7,53.6-21.7c2.1-2.1,5.6-2.1,7.7,0s2.1,5.6,0,7.7C299.8,338.3,278,347.1,254.5,347.1z"/>
</svg>